<svg width="180" height="31" fill="none" xmlns="http://www.w3.org/2000/svg"><g clip-path="url(#clip0)" fill="#fff"><path d="M16.875 18.744H4.905v-3.96H20.34c-.405-1.68-1.71-3.24-4.005-3.24H5.13c-2.565 0-4.05 1.26-4.05 4.02v2.94c0 2.4 1.53 3.78 3.78 3.78h12.105v4.2H.675c.405 2.28 1.71 3.48 4.05 3.48H16.92c2.565 0 3.825-1.32 3.825-4.14v-2.94c0-2.58-1.485-3.96-3.87-4.14zm24.435-7.14H26.55v18.42h4.185v-7.08h10.89c3.015 0 4.68-1.38 4.68-4.62v-2.04c-.045-3-1.935-4.68-4.995-4.68zm1.35 5.88c0 1.32-.18 2.04-1.8 2.04H30.735l.045-4.8h9.9c1.8 0 2.025.72 2.025 1.98v.78h-.045zm15.795-6.66l-2.52 4.14 4.275 7.86H51.3l-2.205 3.12h12.87l2.205 4.08h4.95l-10.665-19.2zm18.675 3.96h15.66c-.405-2.16-1.98-3.24-4.23-3.24h-11.7c-2.025 0-3.96 1.08-3.96 4.02v10.32c0 2.94 1.935 4.02 3.96 4.02h11.835c2.7 0 3.645-1.02 4.095-3.48H77.13v-11.64zm25.605 11.76v-5.64h8.415v-3.12H98.505v12.24h18.675v-3.48h-14.445zm15.075-14.94H98.955v3.24h18.855v-3.24zm11.611 0h-6.57l7.74 7.56c1.125-1.02 2.43-2.1 3.6-3l-4.77-4.56zm9.54 9.42c-1.125 1.02-2.25 2.16-3.33 3.24l5.85 5.7h6.615l-9.135-8.94z"/><path d="M179.55.864c-36 2.76-52.65 23.28-56.385 28.14l-.765.96h6.66c18-24.06 43.875-28.32 50.49-29.1z"/></g><defs><clipPath id="clip0"><path fill="#fff" transform="translate(0 .444)" d="M0 0h180v30H0z"/></clipPath></defs></svg>