<svg width="1196" height="544" fill="none" xmlns="http://www.w3.org/2000/svg"><path d="M307.845 27.293C194.662 15.379 99.185 42.973 59.312 97.972l248.533-70.68z" fill="#000"/><path d="M307.845 27.293C194.662 15.379 99.185 42.973 59.312 97.972" stroke="#fff" stroke-width="2.8" stroke-miterlimit="10"/><path d="M308.352 26.97c52.145 5.488 99.138 17.21 134.868 32.22l13.119 5.903c29.893 14.42 53.413 33.014 54.261 57.461" fill="#000"/><path d="M308.352 26.97c52.145 5.488 99.138 17.21 134.868 32.22l13.119 5.903c29.893 14.42 53.413 33.014 54.261 57.461" stroke="#fff" stroke-width="2.8" stroke-miterlimit="10"/><path fill-rule="evenodd" clip-rule="evenodd" d="M306.271 11.784c23.981 8.907 44.65 24.387 59.392 44.48 14.743 20.095 22.898 43.901 23.434 68.408.536 24.508-6.572 48.616-20.424 69.277s-33.826 36.946-57.397 46.796c-23.57 9.85-49.678 12.823-75.023 8.542-25.344-4.281-48.787-15.623-67.363-32.592-18.575-16.969-31.451-38.802-36.997-62.739-5.546-23.938-3.514-48.904 5.84-71.741 12.545-30.622 37.349-55.244 68.955-68.452 31.606-13.207 67.426-13.92 99.583-1.98z" fill="#000"/><path fill-rule="evenodd" clip-rule="evenodd" d="M306.271 11.784c23.981 8.907 44.65 24.387 59.392 44.48 14.743 20.095 22.898 43.901 23.434 68.408.536 24.508-6.572 48.616-20.424 69.277s-33.826 36.946-57.397 46.796c-23.57 9.85-49.678 12.823-75.023 8.542-25.344-4.281-48.787-15.623-67.363-32.592-18.575-16.969-31.451-38.802-36.997-62.739-5.546-23.938-3.514-48.904 5.84-71.741 12.545-30.622 37.349-55.244 68.955-68.452 31.606-13.207 67.426-13.92 99.583-1.98z" fill="#fff" stroke="#000" stroke-width="5.399" stroke-miterlimit="10"/><path fill-rule="evenodd" clip-rule="evenodd" d="M251.034 243.407c.013-.199-.347-.289-1.307-.522a4.714 4.714 0 01-1.883-.75c-.223-.242-1.223-1.047-1.082-1.272.261-.211.867-.26.652-.465-.102-.19.161-.435.305-.673.143-.239-.946-1.166-.58-1.272.484-.106 2.602-.128 2.868-.529.381-.399-.049-.799.88-.826a6.682 6.682 0 002.104-.377c.133-.153.228-.334.278-.527.051-.193.055-.394.013-.589-.213-.292-1.192-.998-.945-1.343.356-.342.489-.707 1.264-.492a6.193 6.193 0 002.015.032c.334-.02.152-1.198 1.37-1.372 1.105-.179 2.1.263 2.431-.395.332-.658-1.958-1.608-1.199-1.669.759-.062 3.15.499 3.687.181.64-.318 1.232-1.695 1.876-1.695.747 0 5.117.89 5.627.486a29.389 29.389 0 012.622-1.519s-.814-1.389-.194-1.516c.968-.02 1.936.043 2.892.19a9.763 9.763 0 002.804-.466c.989-.407 1.835-.988 2.704-1.424a21.21 21.21 0 012.422-1.047 13.232 13.232 0 001.983-1.39c.458-.266 1.62-.303 1.861-.575.288-.32.541-.667.756-1.036.377-.502 1.176-2.303 2.1-2.364a19.647 19.647 0 002.931-.978c.873-.227 1.366.22 2.179.094a9.595 9.595 0 012.88-.146c.501.141.521.447 1.267.123a6.869 6.869 0 001.187-.589c.703-.411.876-1.47 1.764-1.711.888-.242 1.593-.412 1.845-.808a9.68 9.68 0 011.407-1.833c.492-.341 3.284-5.435 3.704-5.483.491.042.985-.051 1.422-.268.493-.302 1.481-1.247 1.868-1.19.387.058 1.199-.462 1.465-.585.35-.174 1.131-.407 1.488-.574.357-.166.476 0 1.013-1.059.492-.749.887-1.55 1.178-2.388.025-.424-.972-1.081-1.389-1.612-.416-.53-.672-.408-.995-1.263-.322-.855-.479-1.622-1.24-2.007-.83-.342-3.649-.735-3.997-1.201-.348-.465-.681-1.333-1.166-1.001-.416.285-.878.506-.685.058.121-.402.476-1.317.284-1.431-.12-.164-1.112-1.881-1.766-1.689-.654.191-4.057 2.304-4.157 1.716-.035-.627 2.127-1.531 1.903-2.119-.294-.548-1.629-.286-2.234-.075-.539.171-2.018.157-2.033-.149-.082-.267.842-.933 1.346-1a4.929 4.929 0 002.297-1.231c.234-.45-.5-1.321-.535-1.745-.034-.425.69-3.527-.344-3.105-.971.375-3.07 2.997-3.551 2.543-.482-.455-1.168-1.836-1.905-1.556-.736.279-1.233 1.303-1.691.707-.459-.595-.073-3.59.394-4.423.467-.833 1.295-1.551.89-2.635-.363-1.115-3.468-5.148-2.351-5.391 1.117-.243 2.511-2.2 1.558-1.995-.995.229-3.08.676-3.701-.224-.582-.931-1.123-2.143-2.037-1.704-.948.464-2.51-.672-2.152-.599.404.044.08-1.002-.152-1.152-.231-.151-5.017-2.013-5.017-2.013s-.89 1.331-1.02.933c-.098-.7-.143-1.406-.136-2.112 0 0-3.014 1.184-3.73.724-.717-.459-2.148-1.186-3.842.59-1.654 1.755-3.427 1.367-3.571.873a7.352 7.352 0 00-2.367-1.981c-.819-.431-.715 1.316-2.251-.151s-3.149-2.776-2.818-3.589c.33-.812 2.692-4.176 2.781-4.733.089-.557-4.059-3.3-4.895-4.484-.837-1.183-1.126-3.346-.599-3.302.527.045 4.878-3.834 4.319-4.767-.538-.954-5.575-2.209-6.065-1.421-.467.787-2.802 3.776-3.879 3.375-1.077-.4-7.298-1.997-5.761-7.042 1.557-5.061 1.923-5.297 2.581-5.76.657-.463 1.433-.542 1.223-.992-.21-.449-.018-2.722.815-3.231a9.044 9.044 0 013.448-.506c.184.029 1.264-.986 1.933-.329.668.657 1.809.451 2.67 1.031.861.581 1.747 1.838 2.81 2.013a2.829 2.829 0 001.924-.212c.261-.165 1.086-1.124 1.953-.384.867.739 1.446.084 1.676 1.331.238 1.226 2.349 1.583 2.973 1.957.624.374 1.007.195 1.275.868.259.69.941 1.393.72 2.119a3.835 3.835 0 00-.472 2.282c.137.947.361 1.88.668 2.79.111.302.819.903 1.155.841a5.197 5.197 0 001.512-2.173c.298-.957.521-1.934.667-2.923.209-.887-.677-2.299-.185-3.418.493-1.119 1.543-3.008 2.225-3.092.682-.084 4.658-1.818 5.897-1.87 1.242-.032 3.551-.374 3.875-.817.325-.424-.163-1.562.133-2.119.296-.557 1.2-1.028 1.622-1.58a6.68 6.68 0 011.695-1.417c.586-.436 1.72-1.808 2.366-1.937.652-.093 3.397.159 3.984-.189.586-.349 2.091.753 2.358.031.272-.691-1.916-1.181-1.137-1.809a20.98 20.98 0 013.321-1.883c1.016-.536 6.871-1.223 6.372-.848-.5.375-1.961.559-2.188 1.557-.227.998-.646 1.695.333 1.81.97.081 1.232-.619 3.405-.805 2.147-.218 3.294-.251 4.133-.397.838-.147 2.521.39 2.389-.59-.133-.98.153-3.249-.605-2.958-.746.346-2.584 1.271-2.584 1.271l-2.434-2.613s-1.27.672-.85-.432c.2-.633.648-1.169 1.251-1.498 0 0 .497 1.228.915.244.267-.727.582-1.438.942-2.127.255-.327-4.463-1.932-3.982-2.535.482-.602 4.489.34 4.466.781.109.634.336 1.243.669 1.801.317.694 1.692 1.941 1.675 1.083-.042-.922-1.765-3.468-.908-2.832.84.6 2.181 1.95 3.003 1.695.823-.254 4.739-2.132 4.643-1.129-.097 1.003-4.697 5.063-4.424 5.808.256.685 4.235 2.706 3.91 2.954-.325.248-2.547-.752-1.742.667.795 1.385 1.175 2.089 1.991 1.476.798-.69 1.37-1.362 1.529-.795.177.421.428.81.742 1.15.208.086.436.117.661.089.224-.028.437-.113.614-.248.349-.272.627-.617.813-1.009.186-.391.275-.819.26-1.248.111-1.261-1.963-3.822-2.703-4.615-.74-.792-.995-1.667-.513-1.928.63-.375 1.217-.813 1.751-1.304.108-.836.116-1.681.025-2.519.047-.159 1.692-1.272 1.14-2.287-.577-1.078-1.381-2.754-2.152-2.605-.771.15-4.493.596-3.458.252 1.001-.403 4.069-.034 3.471-1.547-.575-1.451-1.958-1.921-2.113-2.854-.189-1-1.07-4.054-1.07-4.054s1-.53.765-1.228c-.236-.698-.582-5.403-.582-5.403s-.547-4.132-1.209-3.2c-.723.867-4.577 4.282-5.431 3.165-.853-1.118-1.572-2.694-1.294-3.267.319-.522 1.392-2.967.885-3.708-.456-.69-2.864-2.344-2.711-3.095a7.312 7.312 0 00-.916-3.231c-.287-.367-1.667-1.368-1.796-1.01-.187.305-.096.981-.599.52-.503-.463-1.084-1.178-1.496-1.287-.412-.109-1.691-.946-2.303-.342-.556.65-.622 2.948-1.348 3.341-.727.393-.698.47-.537 1.245.161.775.209 1.32-.279 1.752-.436.475-2.92-.79-1.371 2.37 1.614 3.255 1.143 4.323.162 5.594a9.934 9.934 0 01-4.074 2.514c-.661.172-1.46.18-1.478.747a9.23 9.23 0 01-.767 2.404c-.191.327.042 1.602-.223 2.119-.222.542-.955 2.69-1.969 2.03-1.073-.72-1.065-1.801-1.368-2.817-.303-1.016-1.178-1.507-.828-1.963.351-.457 1.166-.053.883-.658-.245-.574-.546-.865-.098-1.447.447-.581 1.354.089 1.088-1.143-.292-1.251-.207-2.3-1.322-2.706-1.115-.407-2.114-8.766-2.687-9.641s-3.354-2.878-4.644-2.586c-1.326.282-2.257 2.817-2.67 1.998-.414-.819-2.545 2.801-3.338 2.035-.793-.766-.548-5.737.274-7.057.832-1.303 1.78-3.439 3.613-4.15 1.749-.726 6.659-2.705 6.659-2.705a.796.796 0 01.153-.613.88.88 0 01.562-.333c.934-.172 1.044-.388 1.496-.43.526-.007 2.225.26 2.573-.054.349-.314 2.046-1.557 2.106-.848.06.708-2.287 2.296-2.063 2.682.223.387 1.93.783 2.087 1.696.156.912-.256 1.27 1.046.75 1.251-.539 2.169-2.812 2.757-1.557.564 1.25 3.226 3.238 3.432 2.835.269-.36-.024-1.27-.815-3.021-.903-1.801-3.533-3.708-2.781-3.993.681-.31 1.94.325 2.365-.636.425-.96 1.024-1.887 1.762-1.762.817.176 1.277-3.567 1.277-3.567s2.147-1.79 1.401-2.688c-.674-.848-3.382-3.475-2.985-3.408.315.024 5.488.4 5.192 1.384-.296.984 1.205 2.308 1.491 1.556.196-.797 1.683-1.766 2.32-.136.674 1.684 3.971 9.882 3.501 10.688a1.266 1.266 0 00.175 1.537s4.45 2.286 3.643 2.707c-.808.422-1.688 1.197-2.049.33a5.665 5.665 0 00-2.003-2.846c-1.025-.564-1.528-.65-2.119.556-.546 1.271 1.024 2.437-.759 1.635-1.708-.728-3.412-2.497-4.244-.93-.86 1.59-2.703 1.96-2.225 2.63.538.713 5.275-.61 5.63.724.395 1.377 1.162 1.745.946 2.436-.216.692 1.033 1.127 1.099 1.627.12.552.366 2.611.964 3.123.599.511 1.558.5 1.93 1.22.371.719 4.253 2.954 4.054 2.706-.251-.306-3.225-6.356-2.479-5.924.807.492 4.069 7.123 4.509 6.4.439-.722-.314-2.525-.027-2.542.341.05 2.192.313 1.983-.479-.158-.728-2.129-3.832-2.551-4.823-.371-.933-.532-5.816.223-4.805.814 1.073 2.517 2.428 2.342 3.4-.248.903-.258 1.029.111 1.627.314.53.914 2.609 1.495 1.935.581-.674.976-2.935 1.686-3.16.71-.226 1.81-.166 1.504-1.101-.306-.936-2.294-2.912-2.648-3.592-.288-.618-3.58-5.283-3.867-5.941-.367-.72-.6-1.728.024-2.256.625-.527 2.793.475 1.875-.7a2.206 2.206 0 00-1.003-.696 2.308 2.308 0 00-1.24-.069s-1.744-.248-1.007-.786c.812-.466 2.132.578 1.465-.45a4.628 4.628 0 00-2.514-1.802c-.397.01-2.28-1.598-1.131-1.598 1.074-.043 1.595.434 1.499-.238-.096-.672-.79-3.237-1.611-1.87-.853 1.398-1.392.627-1.754.106-.282-.46-.955-.906-.907-1.646.048-.74.737-.989.229-1.688-.507-.7-.89-1.6-1.2-1.878-.31-.278-.111-.574.356-.694.379-.17-.023-1.82-.889-2.244-.962-.476-3.679-1.752-3.48-1.267a21.139 21.139 0 002.371 2.728s1.57.675 1.185.864c-.385.19-1.315.079-1.645.567-.247.546-.89 1.673-1.543.646-.581-.974-.544-1.789-.89-1.241-.445.504-1.59.98-1.557.545.032-.436 1.335-1.542 1.192-2.095-.235-.602-.213-3.27-.483-3.446-.27-.176-5.536.384-5.209 1.083.229.658 1.036 1.937.708 2.103-.328.166-.987.106-.927.408.06.302.276.944.07 1.31-.12.412-.683 1.597-.84 1.484-.157-.114-1.407-1.113-1.186-1.722.124-.65-.414-2.638-.321-3.035 0-.442.668-.402.74-.53.072-.128-.819-1.1-.187-1.204.632-.104 4.057-1.343 3.735-1.646-.321-.303-4.492-1.522-5.05-1.102-.559.42-2.88 1.436-3.304 2.592-.437 1.182-.942 2.504-.352 3.118.589.613 3.513 2.013 2.651 1.963-.862-.05-3.607-.87-3.067-.414.445.423 4.604 4.85 4.604 4.85s-1.046 1.66-.821 2.014c.224.353.8.635.537.903-.262.268-1.658-.229-2.039.265-.463.457-.346 1.35-1.213 1.625-.779.326-.945.98-1.446 1.004-.502.023-1.594-2.444-.668-2.893a2.852 2.852 0 001.379-1.68c.103-.595-1.86-2.041-2.012-1.943-.151.099-1.207 2.905-1.746 2.374-.462-.497-.985-.432-.45-1.165.451-.756 1.168-1.637.779-2.33-.49-.73-2.96-1.632-2.07-2.296.9-.646 1.266-1.01 1.124-1.41-.141-.402-2.59-4.053-.919-4.76 1.692-.668 2.313-.3 1.872-1.107-.44-.807-2.781-1.924-.426-1.417 2.369.53 1.315.623 2.021 1.337.604.68 1.255-.288 1.355-.514a5.967 5.967 0 011.733-1.557c.379-.068 2.244-.02 1.74-.717-.504-.697-2.274-.71-2.903-1.156a3.007 3.007 0 00-1.633-.56c-.445-.033-2.629-.362-2.903.055-.174.454.523.718-.016 1.228a8.405 8.405 0 00-1.002 1.717c-.111.295.367 1.33-.169 1.865-.572.412-1.18.775-1.818 1.088-.179.195-1.104-.176-1.318.705-.215.882.659 1.06.038 1.616-.714.537-.788.459-.93.853-.236.37 2.78 3.096 2.335 3.445-.357.386-1.112 2.741-2.002 3.053-.89.311-2.475.227-2.448.67.028.443.557 1.743-.155 1.428-.634-.288-1.412-1.229-1.192-1.589.136-.383 1.498-1.025.825-1.807-.779-.809-.389-1.098.212-.88.601.219 1.523-.45 1.917-1.248.301-.818-.179-3.12-1.446-2.67-1.256.469-1.373.53-1.373.53s-3.422-.376-2.347 1.24c1.028 1.625 1.781 1.366 1.707 1.6-.073.233 1.168.53.458.635-.794.093-2.232-.154-2.351.232-.119.386.091 1.491-.334 1.067-.514-.448-5.416-2.145-6.05-2.998-.556-.83-2.25-3.11-3.135-2.413-.886.696-2.559.805-2.287 1.412.177.599.69 1.841.211 2.013-.39.19-1.77 1.666-1.982.717-.213-.95-.26-2.582-.976-3.39a3.45 3.45 0 00-1.073-.99l-1.481.07s-4.426-1.398-4.698-1.582c-.273-.183-.625-.702.312-.69a2.674 2.674 0 001.632-.593s0-1.561-1.224-2.037c-1.335-.472-2.214-.188-2.587-.748-.479-.557-4.279-4.05-5.175-3.632-.897.418-1.579.772-1.897.458-.318-.313.477-2.674-.223-2.3-.7.374-2.551 1.637-2.675 1.377-.123-.26.024-3.496-.707-3.382-.833.128-1.013.438-.97.879.147.435-.029.752-1.055.92-1.026.167-1.63-1.359-2.4-.766-.77.592-1.008.34-2.07.973-1.063.634-2.586 1.44-2.586 1.44s-1.294-.734-.829-1.059c.465-.324.57-1.512.018-1.597-.66-.068-1.469-.34-1.633.449-.165.788-.383 1.253-.669 1.396-.39.163-1.316-.62-1.316-.62s-1.172-2.24-2.133-2.553a136.007 136.007 0 01-3.093-1.095s.374-1.166-1.317-1.033c-1.691.132-1.831.47-2.067.068-.236-.402-.556-1.049-1.069-.815a3.26 3.26 0 01-1.414.024s-1.652-1.378-2.107-1.288c-.455.09-1.467.669-1.367.263.1-.406.711-1.477-.476-1.34-.322.004-.639.07-.935.193a2.437 2.437 0 00-.785.523c-.181.183-.15.26-.293.212-.142-.048.243-.685.334-.773.091-.088.211-.44-.049-.472-.151-.07-.642-.724-1.459-.53-.924.23-3.297.998-3.267.761.03-.236-.092-.223-.314-.139-.273.06-.54.143-.797.25-.794.37-1.632.646-2.497.82a5.656 5.656 0 00-2.305.965 12.694 12.694 0 01-2.361 1.378 15.82 15.82 0 00-2.659.55c-.409.249-1.229.73-1.126.915.104.184 1.379 1.292 1.203 1.695a2.127 2.127 0 00-.078 1.298s1.37-.136.968.318c-.299.407-.093.542-.223.777s-.908 1.394-1.537.53c-.613-.835-.689-.967-.689-.967s-2.113.964-3.215 1.377c-1.101.413-2.002.086-2.05.438-.048.351.654.806.529 1.036-.222.291-.586.782-.248 1.09.247.375 1.942.712 2.139.808a2.672 2.672 0 001.461-.199c.374-.244 1.112-.753.784-.217a1.887 1.887 0 00-.111 1.088c.106.172-.128.423-.571.547-.529.096-1.065.15-1.604.161 0 0-1.186 1.22-1.446 1.028-.164-.245-.334-.705-.907-.35-.662.416-1.557.694-1.573 1.059-.111.424-.377.432-.765.657-.29.165-.576-.229-1.355.97-.848 1.272-.989 2.17-.75 2.483.239.314.082.636.395 1.573.421.885 1.984-.238 2.029.176.044.414-1.744 1.907-1.498 2.724.341.76 1.653.402 2.125.163.471-.238.232.468.747.627.599.106 3.029-.911 2.39-.4-.638.51-1.025.328-1.212.924-.187.595-.084.722-.084.722s-1.31.79-1.809 1.139c-.416.288-5.626 2.043-6.349 2.316-.723.272-2.373 1.095-2.722 1.178-.35.082-.995-.128-1.232.225s-.178.562-.657.524c-.48-.039-1.16-.117-1.468.17-.352.25-.77.404-1.208.443a2.881 2.881 0 00-1.392.725c-.394.355-1.327-.5-1.635.375-.374.953-.125 1.03.216.767.342-.262 1.077-.883 1.287-.69.626.113 1.274 0 1.817-.318.811-.384.896-1.322 1.726-1.095.758.308.785.626 1.786.02 1.081-.668 1.469-1.005 2.003-.6.534.406 1.557-.134 1.557-.134s1.101-1.514 1.577-.383c.423 1.207 1.953 2.006 1.737 1.03-.216-.976-.89-1.9-.401-1.957.412.01 1.66.377 2.091-.036.513-.476 4.088-1.742 4.773-2.475a21.493 21.493 0 013.321-2.18c.506-.319 3.593-3.066 3.593-3.066s3.917-1.854 3.622-1.165c-.295.688-.492.926-.862.886-.369-.04-.46-.38-1.155.206-.778.636-1.755 1.133-1.829 1.566a3.048 3.048 0 01-1.46 1.377c-.396.117-1.304 1.564-2.468 1.955-1.165.39-2.029.073-2.301.695-.273.622.929.901.059 1.365-.792.411-1.191 1.007-.95 1.15.319.092 1.722-.624 1.722-.624a9.083 9.083 0 001.824-.46 10.369 10.369 0 001.476-2.076s0-1.367 2.019-1.88c2.002-.488 2.685-.865 3.02-.878.251.036 1.367-.932 1.558-.23.19.701 1.711-.51 1.568-.954-.222-.395 1.164-1.717 1.322-.612.129.61.469 1.161.964 1.567.375.413.794.788 1.249 1.12.6.53 1.023-.667 2.458.9a21.76 21.76 0 012.504 2.965c.572.954 2.659.71 1.807 2.483-.798 1.77-1.247 2.701-.704 3.555.617.824 2.351 4.457 2.947 5.43.668.953 2.624.742 2.376 2.356a16.376 16.376 0 00.621 4.64 3.342 3.342 0 01-.329 1.402 3.48 3.48 0 01-.895 1.157c-1.405 1.446 1.709 2.552 1.592 4.979-.076 2.431.333 4.101-1.011 6.733-1.303 2.624-3.902 4.16-4.586 6.05-.684 1.888.262 5.812.315 8.117.022 2.359.112 5.589.951 6.675.858 1.069 3.032 2.041 3.161 3.164.275 1.279.44 2.578.494 3.882a7.448 7.448 0 00-.358 2.98c.245.969 1.548 1.208 1.438 2.03-.066.5-.225.984-.468 1.431 0 0-.98.075-.853.697.118.635 1.411 1.29 1.741 1.966.49.865.625 1.873.378 2.827-.384.847-.495.832-.081 1.52.415.668 1.317.603 1.662 1.363.345.761.899.277.565 1.027-.334.714-.308 1.06-.105 1.151.203.117 1.401.269 1.5-.456a3.842 3.842 0 00-.616-2.247 7.308 7.308 0 01-.55-3.206 1.967 1.967 0 00-.255-1.174c-.076-.18-1.689-5.492-1.687-5.685-.008-.163-.444-2.323.291-2.458.735-.134 1.286-.447 1.498.52.213.967-.197.847.163 1.721.361.874-.901 1.459-.015 2.649a17.855 17.855 0 011.826 5.191 27.783 27.783 0 001.627 2.887c.68 1.377 1.263 1.932 1.432 3.33.169 1.397 1.398 2.252.641 3.084-.756.831-1.438.902-1.392 1.367a12.672 12.672 0 001.919 3.836c1.092 1.521 4.393 3.949 5.581 5.057 1.188 1.108 3.014 4.071 3.842 3.571.827-.5 2.745-1.188 3.124-.751.352.423-.093 1.363 1.112 1.811 1.206.448 1.758 2.191 2.149 2.923.422.736 2.29 2.377 2.625 2.869.335.491 1.941-.899 2.056 1.624a11.463 11.463 0 00.667 4.005c.352 1.206 2.923 4.28 2.993 4.661.07.381 1.3 2.177 2.832 2.159 1.532-.018 2.16-1.086 3.053.077.892 1.163 1.916.831 1.503 1.811-.395.974.89 2.5-1.348 3.668-2.268 1.165-6.514 3.019-7.278 3.862-.74.839-1.159 3.897-1.159 3.897s-2.951 1.141-2.954 2.611c-.057 1.458 2.37 3.873 1.793 7.734-.511 3.783-.373 3.825.609 6.271.905 2.405 6.586 5.529 5.664 6.804a11.008 11.008 0 00-1.733 3.396c-.205.889-.204.923-.446 1.158a8.8 8.8 0 00-1.302 1.578 6.275 6.275 0 01-1.18 1.552c-.17.153-1.945 2.735-1.945 2.735s-1.513-.833-1.62-.212c-.106.62.978.86.878 1.304a6.11 6.11 0 01-.858 1.358c-.191.17-1.039.401-1.136.497a3.645 3.645 0 00-.729 1.631c-.02.424-.027.636-.326.834-.396.196-.623.798-1.029 1.105-.736.7-1.541 1.331-2.403 1.886-1.058.635-1.581.834-1.61 1.115-.029.28.462.464.141.635-.426.171-.609-.029-.646.318.094.411.086.838-.024 1.245-.035.337-1.179.328-1.32.635a5.23 5.23 0 00-.785 1.272c-.42.821-.732 1.589-1.422 1.899-.689.311-1.629.015-1.539.874.097.838.075.989-.164 1.111-.347.097-.514-.263-.816.251-.303.513.491.437-.347.797-.734.362-2.046.106-1.78 1.183.167 1.032.222.066 1.068-.26.733-.347 1.158-.16.514.345-.539.514-1.091.389-1.26.713-.06.478-.177.948-.349 1.4-.28.261-.717.091-1.027.523-.31.433.008.63-.146.814-.034.198-.659.375-.682.504-.138.106.183.295.15.479a21.183 21.183 0 001.982 3.237c.556.351.166.493.152.588-.015.095.104.112.104.112a.885.885 0 00.211.212 8.48 8.48 0 011.398.506c.678.23 1.342.499 1.987.804.573.358.654.731 1.036.617.279-.132.58-.213.89-.238.369-.009 1.646-.512 2.245-.369.29.068.57.171.833.308.271.094.555.151.843.169.37.013.37-.031.37-.031l-.01.02zm69.049-225.59c.689.349 1.378.702 2.062 1.06v.006c.222.122 1.009.56 1.784 1.015.656.407.464.23.581.286.116.056-.556-.323-.89-.51v-.01c.524.287 1.044.577 1.565.869v.012l.445.254h.014c1.123.635 2.236 1.283 3.337 1.95h-.023c-.111-.065-.222-.132-.333-.194-.445-.251-.557-.318-.346-.178.212.14.884.53 1.336.781.111.065.333.197.548.333l.022-.01c.796.495 1.585.996 2.365 1.502 0 .008 0 .016-.007.021.211.145.961.643 1.382.93.316.22.42.295 1.044.742.72.53-.531-.145-.668-.173a18.483 18.483 0 01-1.725-.884c-.222-.134-.268-.064-.522-.145a15.13 15.13 0 01-1.425-.857c-.901-.49-.901-.49-1.695-.906.846.57.847.57 1.685 1.146 0 0-2.134-.933-2.114-.741.02.191 4.058 1.736 4.883 2.33.824.595-2.421-.55-2.859-.586-.437-.036-1.402-.414-1.534-.222-.131.192-.296.212-1.038-.037-.855-.301-1.171-.502-1.669-.432s.715.953.668 1.253c-.168.246-1.881-1.433-2.32-1.673-.544-.3.382.554.493.837.222.347-.347.08-1.214.06-.875 0-1.046-.423-1.779-1.11-.733-.686-.539-.064-.825-.066-.18.058-.12.197-.006.483.113.285-1.794-.583-.628.328s.609.171.915.14c.41.035 1.125.742 1.79 1.282.768.61.233.54.263.715-.071.113-.795-.106-1.398-.293-.707-.236.761.387.779 1.02-.094.589-.968-.272-1.669-.52-.803-.303.682.941.085.765a21.996 21.996 0 01-2.115-.895c-.556-.228.223.33.545.712.424.442.12.933-1.171.553-1.292-.379-.965-.223-1.558-.614-.593-.391-.579-.408-.791-.75-.213-.34-.863.084-1.543.094-.576.07.624.564 1.02.578.396.014.835.432 1.471.968.733.595 1.789 1.109 2.291 1.627.6.578-.38.388-.738.523a3.99 3.99 0 01-1.101.463c-.706.276-1.282-.539-2.146-1.337a3.06 3.06 0 00-1.833-.97c-.384-.02-.397 0-.612-.085a2.166 2.166 0 01-.853-.842c-.401-.475-.5-.042-.741.164-.24.205-1.427-.247-1.867-1.153-.351-.847-.978.15-1.861-.136a2.55 2.55 0 01-1.119-.532 2.393 2.393 0 01-.711-.981c-.375-.848-1.178.08-1.178.08a12.617 12.617 0 00-1.643.025c-.636.034 1.427 1.005.975.901-.453-.104-.602.23.323 1.205.803.94 1.177 1.46 1.177 1.46s.388-.031 1.182-.123c.794-.092.635.742.635.742s1.178.4 2.401.716c1.224.317 1.002-.43 1.526-.463.431-.078.333.106.644.71.205.564 1.437.212 1.997.377.559.166 1.668 1.831 2.179 2.51.511.68-.153.464-.89.606-.835.096.334.731.689 1.203.355.471-1.314.664-1.885.343-.667-.374-2.322-.996-2.622-1.573-.301-.578-1.61-.024-2.034-.61-.334-.535-.573.375-2.504-.618-1.843-.938-1.709-.966-2.243-1.62-.437-.61-1.668-.048-2.029-.554-.271-.463-.92-.353-1.661-1.112-.741-.76-.09-2.044 0-2.27.09-.227.931-.467 1.223-.574.189-.146-1.112-.855-.758-1.993.445-1.059-.668-.18-1.243-.288a.542.542 0 00-.35.03.513.513 0 00-.25.237 1.09 1.09 0 01-.094.703c-.109.22-.288.4-.512.515-.808.52 1.009 1.682.97 2.359-.039.677-.528.979-1.233.677-.603-.262-1.744-.042-2.277-.795-.533-.752-.954-.892-.667-1.68.175-.805.722-.348 1.031-.537.309-.19 1.652-.544 1.957-1.01.408-.424-.033-.538-.028-.869.006-.33-.45-.746-.462-1.04-.013-.293-.542-.86-.668-1.2-.236-.372-.491-.689-.31-.847.181-.158.514.294.903.256l.494.017c.192.048.378.114.556.197 0 0 .636.295 1.07.47a3.339 3.339 0 011.347 1.336c.454.716.143.566.143.566.888.268 1.754.603 2.588 1 .264.255 1.089.106 1.411-.033.428-.093 1.647.052 2.199-.018.658-.018 1.055.236 1.575.244.412-.038-.096-.338-.407-.773-.423-.477-.876-.627-.946-1.583.018-.879.489.08 1.55.351 1.06.27.268.53.158.756-.222.178.898 1.112 1.823 1.887a1.371 1.371 0 001.725.263c.42-.03 1.41-.107 1.336-.46.025-.295-1.759-.248-2.337-.424-.469-.122-.529-.78-.691-1.243-.163-.463.726-.365 1.048-.726.323-.361-.904-.348-1.151-.39a6.428 6.428 0 01-2.09-.932c-.352-.381 1.747-.268 2.536-.218a2.97 2.97 0 011.81.997c.334.39 1.141.435 1.828.699.578.211 1.144.194 1.076-.186-.068-.379-1.013-.436-1.924-1.32-.929-.867-.454-.719-.597-1.24-.042-.457-.627-.128-1.3-.712-.566-.53-.36-.944-.654-1.473-.189-.463.327-.098.474-.395.256-.233.252.062 1.274.537a4.196 4.196 0 011.682 2.162c.197.418 1.211.884 1.821 1.311.609.427.237.082.95.08.598-.048-.867-.482-1.122-.794-.255-.311-.287-.506-.473-.688-.439-.44-.851-.904-1.236-1.388-.334-.44 1.446.484 1.623.424.692.2 1.363.463 2.002.785.927.406-.577-.512-.231-.612.453-.03 2.304 1.06 2.967 1.176.663.117-1.461-.76-2.252-1.157-.682-.337.223-.142.903-.046.679.097.479-.067.094-.417a1.384 1.384 0 00-1.477.029c-.171.302-1.815-.114-2.327-.226-.627-.162-.686-.318-.446-.509.123-.232-1.71-.262-2.615-.703a3.47 3.47 0 01-1.366-.934c-.391-.352-.394-.055-1.456-.465-1.063-.41-1.164-.788-1.094-.941a7.572 7.572 0 012.163 1.048.81.81 0 00.947.078c.105-.213.95.362 1.669.625.718.263.872.245.563.016-.198-.172-2.545-.864-2.267-.855.163-.042 1.014.24 1.334.17.201-.114-1.035-.205-1.267-.308-.67-.15-1.323-.36-1.952-.626-.426-.286-1.465-.456-2.021-.765-.445-.257.072-.163.041-.405.082-.182.42 0 .675.055.24.042.487.027.72-.043.163-.05-1.241-.353-1.335-.458-.213-.149-.222-.121-.548-.337-.208-.166-.991-.29-1.209-.424-.334-.183-.423-.318-.135-.333a8.208 8.208 0 011.624.445c.338.075.667.178.985.31.352.154.292-.02.907.177.615.199.334.206.543.349.454.24.928.445 1.417.613.362.134-.904-.499-1.113-.651-.209-.153.271.028.765.187.374.106.261.051-.067-.157-.328-.207.512.123.748.225.351.172.682.377.989.613.199.18 1.022.54 1.352.742.454.247.895.516 1.319.806.521.382.609.222.408.053a9.02 9.02 0 00-.985-.612c-.222-.13-.778-.457-.535-.364.205.074.415.134.629.182 0 0 .704.318 1.068.46.364.144.017-.034.017-.034l1.067.462c.238.1-.459-.235-.916-.472-.457-.236 1.055.486 1.055.486s.917.468 1.144.59c.227.122.445.262.89.524.325.212.55.336 1.335.77.667.38.243.092.255.068.012-.024-1.445-.832-1.788-1.011-.228-.122-.912-.482-.566-.311l.007-.008zm20.049 12.502l.063.048-.019.024.301.233c.304.237.401.317.906.71.399.318-.094-.087-.094-.087l.1.078.067.022c.173.136.349.271.524.408l.014.044c.5.397.695.56.587.489-.011.013 1.072.904 1.455 1.24.384.336.117.061.223.14.106.078-.383-.337-.969-.831l-.494-.403v-.036a122.8 122.8 0 013.25 2.704l.082.098c.386.333.956.842 1.335 1.184.47.424-.09-.092.488.411.509.388-.288-.255-.668-.591a.219.219 0 00-.02-.056c7.412 6.524 14 13.849 19.632 21.825.026.04.828 1.264.891 1.37.131.211-.475-.444-.516-.424.195.463.438.906.724 1.324.489.874.165.484-.036.318-.137-.064.025.276.144.644.117.315.318.595.581.815.177.186.576.53.638.635.062.106-.141.227-.156.379.219.404.495.778.82 1.111.091.09.432.47.432.47s.619 1.934.629 2.07c.01.135-.695-1.176-1.136-1.928-.441-.752-.769-.559-.95-.317-.201.256.595 1.225.74 1.425.146.2 1.698 3.564 1.762 3.946.065.381-1.358-1.921-1.619-2.34.24.826.576 1.624 1.001 2.379.368.64.666 1.315.89 2.013a4.956 4.956 0 00-1.521-.87c-.38-.08.879 1.86 1.007 2.066.071.1.374 1.427.374 1.427a3.21 3.21 0 01-1.318-1.37c-.334-.777-.285.538-.285.538s-.151.865-.359.304c-.208-.56-1.527-1.237-1.527-1.237s1.262 2.285 1.65 3.15c.438.971 1.269 3.189 1.591 4.205a.984.984 0 01-.177.98 1.075 1.075 0 01-.431.31 1.134 1.134 0 01-.535.071c-.479-.052-.884-1.644-.884-1.644a11.747 11.747 0 00-.91-2.782c-.491-.672-.461.339-.124.953.337.615-.767.094-1.141.137-.374.043-.137 1.32.741 1.559.859.257 2.426 2.74 2.426 2.74s-5.735.635-6.631.299c-.897-.336-1.534-2.57-1.534-2.57a5.48 5.48 0 00.21 1.827c.324 1.05-3.002 2.47-3.559 2.592-.602.031-.739 1.22-1.106.02-.367-1.198-2.361.576-2.959.285-.556-.194-1.662 1.5-1.669 2.684-.055 1.089-1.739 1.572-2.754 2.197-1.032.628-3.735 6.284-3.735 6.284.019.09-.581.018-.581.018a9.343 9.343 0 01-.482-2.297c-.046-1.044-.761-.47-.89-1.282-.129-.811-2.032-.404-2.081-1.244-.048-.84.582.136 1.128-.777.493-1.001-2.435-7.23-2.708-8.43-.274-1.2-.025-1.46 1.988-.99 2.002.523-.644-1.462-.971-2.25-.28-.709-1.386-3.015-1.211-3.577.112-.636-.565-3.653-.222-4.126.342-.472.966-1.628 1.891-1.784.976-.064 1.78-.371 1.994-1.384.193-1.014.933-.901 1.064-1.628.132-.727-.068-.721-1.065-1.675-1.07-1.029-.259 1.342-.259 1.342-.623.343-1.217.73-1.78 1.157A25.806 25.806 0 01341 63.153c.026-.678 2.144 1.093 2.181.544-.033-.636-2.035-1.848-1.595-2.063.364-.293 1.305-.635 2.328 1.116.934 1.662 1.46 1.668 1.63 1.021.096-.729-.499-1.748-.368-3.064.101-1.311-.996-1.136-1.75-1.357-.829-.294-2.032.14-2.189-.692-.157-.831.064-.889.403-1.174.407-.203 1.153.298.765-.648-.389-.946.201-.318.648-.692.447-.374-.049-.106-.57-1.532-.546-1.43-1.617-1.361-.949-1.667.669-.306-.268-1.71-.282-2.004a11.86 11.86 0 00-.601-1.749 5.72 5.72 0 01-.111-2.264c.168-.812-.81-1.3-1.724-2.672a20.506 20.506 0 00-3.073-3.163c-.668-.65-1.96-.223-3.947-1.26a8.47 8.47 0 01-3.493-2.821c-.62-.904-.065-.486-.479-1.483-.434-.981-1.176-1.353-1.093-1.863.084-.51 1.394.683 1.586.424.287-.189.539.463 1.139.059.588-.385 1.573.87 2.289.919.716.049-.668-.698-.818-.887a9.916 9.916 0 00-2.329-.466c-.733-.201-1.426-.861-.794-.722.631.14.51.107.198-.876-.333-.97-1.701-1.743-2.09-2.664-.305-.848 2.749.096 3.379.26.629.166.185-.466 1.154.08a7.067 7.067 0 002.611 1.03c.447-.019.896.011 1.335.09.438.049-.342-.569-.71-1.11-.477-.606.623.212.968.175.345-.038.381.12-.644-.597-1.026-.716-1.923-.767-2.655-1.456-.847-.752-.538-.537-.669-.788-.023-.182-.184-.39.452-.416.623 0 .411.293.659.378.144.016 1.252.212 1.856.247.588.061 1.113.423 1.164.348-.052-.137 1.009.773 1.662 1.172.548.33-.575-.708-.556-.729.12.052.388.124.098-.126-.187-.176-.808-.623-1.071-.908-.374-.35.668.394.584.289-.085-.106.027-.038.678.371s2.656 2.189 3.046 2.513c.391.324-2.592-2.264-2.472-2.212.017-.019 1.399.908 1.821 1.198.318.218.43.283 1.055.729l.409.306h.057l.009.021zm46.992 75.219c3.694 19.627 2.33 39.814-3.972 58.828l.008-.022c-.058.106-.328.811-.268.568.094-.36.241-.964.112-.742-.129.223-.301.424-.333.418 0-.131-.556.349-.556.349.092-.528.218-1.051.377-1.565.211-.58.372-.792.548-1.385.122-.563.279-1.119.469-1.665.239-.577.634-1.623.714-1.731.08-.108-.423.276-.502.384-.048-.013-.401 1.165-.444 1.156-.043-.01.102-1.625-.051-1.285a10.92 10.92 0 00-.525 1.77 5.232 5.232 0 01-.724 1.581c-.006-.501.021-1.003.081-1.502.111-.348.688-3.355.771-3.584a7.11 7.11 0 00.187-1.459c.017-.372-.345-2.93-.371-3.675.068-.977.07-1.957.007-2.934-.185.331-.536.876-.536.876a6.635 6.635 0 00-.037 1.212 11.07 11.07 0 00-.018 2.448c.189 1.153.387 3.439.375 3.686a9.683 9.683 0 01-.463 1.39s-.071-1.519-.215-1.059c-.143.459-.158 1.459-.277 1.554-.151.211-1.169 1.566-1.142 1.198-.007-.251-.174-.047-.234.186-.06.233-.282.798-.417.76-.17.075-.686-1.679-.517-1.756.204-.195.803-.161.958-.118.154.042.091.896.222.557.139-.382.309-.755.508-1.112.187-.275.289-.595.296-.922 0-.498-.546-3.826-.517-4.428.029-.603.062-3.74 0-3.752a2.082 2.082 0 00-.706.467c-.167.089-1.24 1.311-1.454.793-.213-.518-.555-1.878-.953-1.367-.432.621-.524.838-.439 1.207.04.315-.048.633-.246.889-.089.1-.401-.083-.814.416-.27.386-.673.67-1.14.802a3.41 3.41 0 00-1.088 1.494c-.324.847-.027.458-.451 1.052-.397.483-1.137 1.452-1.772 1.633-.634.181-1.57-.529-1.877-.386-.307.143-.955.537-.962.308a9.953 9.953 0 01-.326-1.324 1.462 1.462 0 00-.623-.83c-.215.057-.76-1.072-.707-1.279.082-1.242.317-2.47.697-3.661a14.653 14.653 0 001.416-2.331c.107-.491.168-.99.181-1.492 0 0-.026-.98.42-1.124.42-.04.82-.522 1.041-.271.199.363.432.398.711.552.279.155.889.143 1.001.383.111.239.359.73.785.803.401.179 1.491.819 1.585.722a7.88 7.88 0 001.197-2.662 8.614 8.614 0 00.17-2.37c-.167-.475-.991-4.167-.991-4.167.193-.088.4-.145.613-.167.189.017 1.188 1.927 1.141 1.352a2.935 2.935 0 01.273-1.567c.137.012.694.405.818.417.112.124.991.205 1.178-.126.309-.455.647-.892 1.013-1.307.175-.106.366-.672.796-.875a12.086 12.086 0 001.496-2.731s.805-1.507.823-1.272c.018.235-.498 1.758-.281 1.65.21.01.424-.337.547-.57a6.652 6.652 0 00.647-2.242 8.48 8.48 0 01.571-2.624c.145 0 .879-1.083.868-.6-.016.604-.027 2.899.171 2.782a.797.797 0 00.191-.6c.01-.243-.024-1.211-.008-1.695.015-.364.161-2.543.145-2.666-.014 0-.118-.361-.238-.241a4.83 4.83 0 01-.748 1.099c-.283.121-.577-.354-.64-.355a32.703 32.703 0 01-.495-4.649c.112-.483.282-.373.217-.729a5.034 5.034 0 01-.059-1.195c.02-.408.078-.814.175-1.213.079-.006.387-1.358.509-1.609.132-.133.662-1.519.87-1.662.187-.264.611-.921.701-.808.103.235.138.232.229-.394.092-.626.26.219.256-.521a18.219 18.219 0 010-1.983c.049-.006.072-1.003.144-1.138.08-.012.144-.645.149-.77.006-.125.021-.629 0-.75a4.908 4.908 0 00-.139-.731c-.011.126-.081.012-.084.138-.022 0-.111-.36-.084.012.026.372.111.735.074.615a.757.757 0 01-.129-.356 3.285 3.285 0 01-.082-.988.65.65 0 01.141-.399c0-.125-.066-.741-.046-.872.02-.13.017-.379.044-.259.01.083.034.164.069.24 0 0 .011 0-.012-.123h.01-.003zm-4.409 60.134a126.001 126.001 0 01-2.483 6.623c-.184.449-.379.889-.567 1.335.259-.636.607-1.475.735-1.801.179-.464-.392.92-.533 1.266-.097.231-.023-.009.066-.242.135-.349.328-.942.283-.826-.095.231-.395 1.051-.438 1.165-.044.115-.076.237-.312.813-.191.461-.629 1.496-.779 1.841-.15.346-.868 1.937-1.136 2.504-8.653 18.286-21.862 34.284-38.48 46.604v-.006l.203-.157c.301-.233 1.216-.932 1.601-1.271.273-.269 1.476-1.408 1.898-1.891a47.615 47.615 0 011.913-2.041c.721-.713 1.191-1.135 1.441-1.425.139-.267.304-.522.492-.761.334-.387.641-.796.917-1.223.011-.416.178-.814.472-1.122.445-.442 3.047-3.303 3.239-3.468a15.964 15.964 0 002.086-1.812c.259-.392.482-.804.667-1.232.178-.332.381-.651.608-.954.174-.178.445-.436.469-.577.112-.234.395-.954.533-1.166a8.865 8.865 0 001.02-2.178c.104-.694-.648-1.271.167-2.181a31.919 31.919 0 002.113-2.654c.262-.41 1.528-1.741 1.434-2.098-.093-.357-.133-.822-.474-.765-.342.057-.882.269-.916-.044-.035-.314.16-1.617-.05-1.756a6.052 6.052 0 00-.974-.371 5.52 5.52 0 00-1.355.492c-.637.409-1.931 1.2-2.412.857a2.506 2.506 0 00-1.906-.383c-.984.236-1.99.385-3.004.444-.661-.082-2.464-4.926-2.447-5.827.201-1.325.294-2.662.278-4-.182-.492-1.255-1.559-.703-2.415.607-.938 2.412-3.284 2.702-3.591a27.647 27.647 0 002.617-4.701c.197-1.07.552-2.107 1.056-3.081.319-.185 4.039-4.094 5.125-4.758 1.044-.588 3.508-1.774 3.508-1.774a3.205 3.205 0 01.851-1.483c.59-.872 1.26-1.692 2.002-2.452.737-.551 1.681-1.043 2.44-1.714a6.284 6.284 0 001.437-1.502c.111-.194.544-.866.556-.183.043.582.539.721.766.9a7.556 7.556 0 002.139.491c.435 0 1.456-.768 1.773-.681.795.05 1.582.184 2.346.399.795.212 2.082.197 2.296.622.169.536.392 1.092.21 1.289a2.351 2.351 0 00-.764 1.633c-.097.963-.508 2.205-.593 2.801-.086.597-.032.742.275.968.307.227.723-.141.631.842a4.503 4.503 0 00.595 2.385c.275.486 1.8-3.003 1.84-2.088-.025.704-.001 1.407.073 2.107a.875.875 0 00.464.425s.463-1.022.259-.172c-.223.847-.263.96-.129.741.168-.337.381-.789.381-.789s.609-1.637.875-2.331.471-1.297.582-1.612l.021.012zm-75.091-97.77c.167.53.28.75.705.607.425-.144 1.09-.81.651-.898a3.971 3.971 0 00-.788-.157c-.165.03-.322.094-.458.188-.126.033-.111.26-.111.26h.001zm-3.992 2.33c-.187.475-.25 1.024.19.937.441-.087 1.256-.042 1.148-.727-.055-.643.352-1.152-.313-.91a2.494 2.494 0 00-1.025.7zm-5.36-3.361c.048 1.644 1.279 1.378 1.863 1.177.584-.2 2.734-.5 1.797-1.13-.937-.63-1.731-1.075-2.094-.53-.43.505-1.566.487-1.566.487v-.004zm14.741-10.526c-.406.53-1.134 1.047-.046 1.967 1.088.92 2.147.877 2.533.267.386-.61.303-2.104-.346-2.172-.65-.068-1.277-.292-1.613-.01-.257.338-.095-.023-.133-.121-.038-.099-.201-.186-.247-.128l-.149.197h.001zm-9.561-38.374c1.066 1.247 3.1 1.747 1.869 1.837-1.12.16-1.987-.905-1.113.134.964 1.11 2.413 1.394 2.518 1.16.215-.188.513-1.141.913-.55.498.647-.05.977.418 1.109.357.087.667-.574.847-.67.066-.141.111-1.092.643-.794a5.53 5.53 0 001.792.507c.53.059 1.063.09 1.596.097.166-.053-.456-.742-1.01-1.007-.673-.318-1.147-.466-1.175-.701-.027-.235.979-.03.383-.509-.596-.48-2.038-1.229-1.93-1.46.108-.233.375-.524-.047-.81-.541-.33-1.855-1.103-1.801-1.23.055-.127.069-.8-.16-.916a4.477 4.477 0 00-1.101-.664c-.387-.066-1.317-.492-1.112-.317.322.22.924.434.901.485-.022.05.064.183-.459.116-.523-.067-1.304-.164-.983.06.2.183 1.128.917.648.759-.364-.113-1.36-.68-1.504-.658-.025.064-.39-.049-.304.08.39.442.812.857 1.264 1.241 0 0-.058.144-.702.069-.526-.03-1.155-.13-1.086-.308a.415.415 0 00-.132-.342.462.462 0 00-.76.226c.061.188.483.48.909.755.509.365 1.051.687 1.62.96.779.397-1.392-.522-1.586-.368-.195.154.758.763 1.122.848.364.085 1.315.05 1.431.094.23.088 1.18.386.947.612-.232.227.662.636.371.689-.174.095-1.307-.386-1.661-.484-.693-.173-1.4-.286-2.114-.337-.144.03.545.285.545.285l.003.002zm-8.972 7.848c.634-.113 1.987-1.203 1.977-1.844-.125-.669.023-1.763-.885-1.977-.797-.176-1.378.463-1.743-.265-.263-.687-.757-1.434-1.347-1.112-.591.322.188 1.695-.19 1.748-.265.081-1.996-.53-2.205-1.04-.322-.54.112-1.616-.817-1.334-1.037.268-.616.906-.477 1.26.25.388 2.033.416 1.508.968-.524.57-.807.727-.63.932.177.204 1.669-.056 2.063.219.394.274.691.813.373 1.068-.426.226-1.571.512-1.151 1.032.22.287.511.519.847.674.335.155.706.23 1.08.217a10.512 10.512 0 001.597-.546zm10.901-2.884c-.166.087-.498.547-.735.501-.127 0 .033.505.402.53.379.085.774.088 1.155.009.299-.087.055-.689-.02-.81-.074-.12-.601-.684-.659-.558l-.144.318.001.01zm-5.664-2.4c.509.515 1.144.9 1.848 1.124.275-.049 1.018.622 1.015.014-.004-.608-1.136-.983-1.25-1.025a2.428 2.428 0 00-1.02-.326.973.973 0 00-.593.212v.002zm-11.221-4.442c-.365-.025-.601 1.345-.283 1.99.318.646 1.891 1.091 1.695.499-.288-.6-.62-1.18-.994-1.736-.078-.17-.419-.753-.419-.753h.001zm9.653-2.666c-.445.14.423 1.435.779 1.176.356-.26 1.182-.34.903-.667-.403-.362-.389-.41-.761-.482a4.276 4.276 0 00-.92-.027h-.001zm.627 3.433c-.386.349.477 1.166.383 1.43-.213.226-1.446-.26-.526.727 1.013 1.047 1.494.786 1.878.781.384-.005 2.01.452 1.54-.303-.373-.702.223-.902-1.373-1.812-1.504-.856-1.902-.823-1.902-.823zm-8.375-4.076c-.721.3.964 1.13 1.13 1.443.283.346 1.697.741.545.755-1.03.052-1.779-.423-1.632-.055.146.369 1.018.857 1.472 1.028.454.17 1.386.023 1.678.3.179.244 1.058.664.988.883-.07.22-.583.248.376.787.838.51.986.817 1.385.384.398-.434.223-1.02.163-1.59-.185-.59-1.775-1.63-2.726-2.288-.951-.658-.849-1.03-1.185-1.201a3.642 3.642 0 00-1.436-.39c-.631-.036-.757-.055-.757-.055l-.001-.001zm-10.135-.389c.182.349 2.084.79 2.084.79s1.815.813 2.119.557a.95.95 0 00.108-.723.997.997 0 00-.441-.598c-.576-.245-.399.101-1.394.057-.871-.016-2.482-.065-2.479-.083h.003zm-2.704.615c.327.248 1.879.51 1.574.838-.304.327 1.025 1.078 1.462 1.342.556.287 2.572-.614 2.572-.614s1.814.183 1.499-.071c-.314-.255-.612-.59-2.436-.754-1.822-.145-1.523.212-2.069-.147a10.153 10.153 0 00-2.602-.594zm-10.538 2.87c-.458-.16-1.417.134-1.75-.2-.333-.333.429-1.27.904-1.242.355.017 5.83-.899 6.445-.968a19.955 19.955 0 012.817-.197c.848.06 1.285-.395 1.093.047-.038.2-.126.39-.256.552-.13.162-.299.292-.492.38-.255.08-1.246.257-1.403.518-.157.262-.111.81-.968.998-.856.188-1.505.68-1.699.33-.316-.354.518-1.405-.222-1.142-.772.214-1.518.505-2.225.868-.858.385-1.49.944-2.06.793-.457-.144.521-.707.521-.707s-.703-.02-.703-.03h-.002zm2.409 1.896c.466-.022 1.277-.009 1.568-.55.175-.541.692-.937.206-.8-.486.138-1.913.356-2.156.461-.242.105-.19.79-.19.79.193.021.385.054.573.099h-.001zm1.19.796a5.56 5.56 0 002.583 1.444c.465-.059 2.265-.562 2.225-.282.068.297 1.275.67 1.702.852.317.17 1.526.48 1.048.564-.36.106-1.975-.493-2.592-.22-.499.292-2.743.092-2.661.334a3.883 3.883 0 001.882 1.043 3.546 3.546 0 002.67.239c1.659-.388 2.914-.944 3.402-.505.489.439.16.872.741.827a3.61 3.61 0 011.507.416s.104.53.639.203c.535-.328 1.344-.779 1.344-.779s1.088-.168.942-.96c-.041-.751.438-1.695-.833-1.377-1.371.313-1.246.278-1.39-.114-.145-.392-.889-1.276-.501-1.428.278-.172.944-.468.444-.924-.386-.424-.531-.318-1.497-.285-1.08.01-1.192.564-1.192.564s.533.875.367 1.098c-.167.224-.849.122-.667.417.181.294 1.097.351.69.62-.406.268-1.131.982-1.509.55-.377-.433-1.491-1.311-1.572-1.514-.193-.218.188-1.028-.667-1.553-.744-.5-.792-1.659-1.906-1.386-1.115.274-1.697.263-1.847.485-.15.221-1.704-.5-1.327.277.365.8 1.702 1.253 1.01 1.21a18.36 18.36 0 01-1.963-.069c-.334-.094-.964.337-1.069.254l-.003-.001zm15.131 11.947c-.103.764 2.657 3.735 2.636 4.468.07.773-.284 1.552.182 1.716a4.614 4.614 0 002.47-.45c.388-.193 2.164-1.219 1.85-2.15-.426-.953-1.97-1.907-1.319-2.2.652-.294 1.78-1.257 1.76-1.516.08-.223.779-1.215-.143-1.212-.811.04-1.585 1.658-2.113.88-.528-.779-.408-1.513-1.208-1.123-.695.423-1.494.116-1.518.568-.128.423.706 1.659.531 1.867-.073.235-1.006.8-1.303.34a14.91 14.91 0 00-1.557-1.399l-.276.212.008-.001zm-21.662-5.241c.772-.35 5.45-.616 5.928-1.07.382-.456.543-.924-.99-2.191-1.459-1.224-.464-1.043-1.598-.885a4.929 4.929 0 01-1.901-.056s.325-1.568-1.138-1.834a9.933 9.933 0 00-1.81-.187c-.454-.062-2.152-.665-2.501-.124-.349.54 1.578.715.556 1.292-1.127.593-1.911.636-2.021.954-.223.318-.215 1.022-.986 1.284-.771.261-2.28.887-2.267 1.28-.094.401-.625.683.161 1.522.88.847 1.633 1.332 1.428 1.712-.306.384-.293.999.022 1.05a12.166 12.166 0 002.505-.973s1.045.48 1.26.152c.39-.59.909-1.094 1.52-1.477a10.366 10.366 0 011.839-.444l-.007-.005zm17.479 1.393c-.179.31 1.365 2.583 2.002 2.187.638-.397 1.124-.106.918-1.012-.206-.906-.659-.918-1.519-1.026a31.477 31.477 0 00-1.404-.149h.003zm-.088 14.396c-.284-.76-1.5-2.134-.696-2.224.716-.106 3.089.953 3.157.366.068-.587-2.765-4.45-2.617-5.067.18-1.152.282-2.314.303-3.478-.142-.31.48-1.59.48-1.59s-2.308-1.836-2.749-1.287c-.333.578-.985 1.15-.692 1.817.388.691.805 1.726.259 1.826-.546.1-2.756.279-2.63-.413.125-.692 1.715-2.405.804-2.69-.912-.283-3.181 1.287-3.588.5-.407-.787.61-1.939.334-2.285-.382-.357-3.42.776-3.347.14-.034-.635 1.175-1.711.521-1.694-.654.017-4.97-.191-5.229.416a2.246 2.246 0 01-.599 1.03s-2.537-.284-2.347.35c.191.491.482.942.857 1.326.376.383.828.692 1.33.907.616.085 2.461-.877 2.31-.33-.048.56-2.144.985-2.144.985s-1.676-1.554-2.241-.53a1.664 1.664 0 00.048 1.37c.104.213.253.404.437.562.185.157.4.277.634.352 1.759.034 3.504.32 5.173.848 1.626.724 2.268 1.195 1.341 1.406-.822.222-1.613-.731-3.392-.932-1.883-.203-4.529-1.425-4.659-.703-.084.384-.063.782.06 1.156.124.374.346.71.645.98.657.54 3.852.84 3.696 1.524-.252.683-.547 1.907-.547 1.907 1.186.457 2.421.789 3.683.989.948-.026 2.781.404 4.075.05 1.294-.354 1.915-1.003 2.848.158a10 10 0 003.134 2.276c.442.085.899.082 1.34-.009l.008-.009zm2.389 112.111c-.632.164-3.912-.636-3.448.56.432 1.214 1.629 1.088 2.279 1.695.65.607 1.919 1.541 2.13 1.3.212-.24.557-.96 1.113-.598.583.329 3.355.847 3.249.566-.105-.281-1.404-2.681-2.413-3.045-1.009-.363-1.229-.556-1.831-.211a.892.892 0 01-.587.059.858.858 0 01-.486-.319l-.006-.007zm-15.139-10.065c.464-.194 4.262-1.318 4.783-.158.522 1.16 2.796 1.643 3.394 2.134.619.47 3.384 2.944 3.573 3.941.211.977 1.189 2.097.072 2.19-1.093.071-3.596-.616-4.222-1.892-.605-1.295-1.611-2.861-2.553-3.285-.941-.424-2.953-1.74-3.337-1.579-.384.161.289.907-.632.424a4.688 4.688 0 01-1.558-1.202c-.159-.199.445-.451.468-.568l.012-.005zm106.431 11.447s-.829.39-.943.598c-.084.094-.16.779-.021.695.139-.084.586-.677.673-.656.111-.09.25-.175.468.112.218.287.386-.143.578-.211.222-.185.667.158.565-.578-.084-.848-.232-1.118-.463-.815-.231.303-.721.892-.721.892l-.136-.033v-.004zm4.771-3c-.331.42-.519.928-.538 1.453.035.443-.093.884-.361 1.248-.199.075-.556-.248-.608.345.077.475.037.961-.119 1.419a4.407 4.407 0 00-.342 1.369s.352 1.059.645.04c.293-1.019.762-2.128.77-2.369-.052-.48.047-.964.286-1.39a4.137 4.137 0 00.511-1.704c0-.361-.237-.409-.244-.411zm-11.64-55.943c.438.785 1.509 1.059 1.098 1.511-.388.56-.622.509-.493 1.04.129.53 1.122.724 1.157 1.282.034.559 2.528 2.127 2.528 2.127s2.224-.388 2.558-.814c.357-.317 1.113-.373.578-2.02-.535-1.648-1.034-3.419-1.65-3.486a4.152 4.152 0 01-2.26-.423 7.346 7.346 0 01-1.538-1.887s.364-1.645-.572-1.343c-.413.168-.777.43-1.06.762a2.583 2.583 0 00-.565 1.144 7.345 7.345 0 001.327 1.554s-1.82-.604-1.734-.063a.708.708 0 00.206.404.77.77 0 00.416.21l.004.002zm7.392 35.079c-.196.329-2.151 1.249-2.318.587-.167-.663-.909-2.194-.392-2.186.504.118 1.249.238 1.251-.748 0-.877-.455-2.082-.183-2.413.265-.443 1.774-.466 1.774-.466s1.145-.467 1.087-.016c-.057.451.317.671.197 1.233a12.122 12.122 0 01-.63 1.682c-.17.473-.305.956-.403 1.447a1.472 1.472 0 01-.381.88h-.002zm1.688-.288c-.384 1.227-.364 1.228-.626 1.444-.263.106-.112.331-.12.78 0 .339.631.593.154 1.02-.483.31-2.133.546-1.714 1.24.42.694 2.573 1.076 2.573 1.076s1.51 1.033 1.817.596c.307-.438.112-1.493.43-1.703.314-.306.515-.701.575-1.126a9.442 9.442 0 000-3.361 34.468 34.468 0 01-1.039-5.992c.183 0 1.467-.15 1.149-1.187-.334-1.145-1.129-1.801-.971-2.153.162-.302.361-.585.594-.842-.222-.45-.222-.449-.454-.898a2.01 2.01 0 00-.845.057c-.243.131-.433.141-.667-.184-.223-.212-.792-.174-.792-.174.212.54.349 1.104.405 1.678a4.279 4.279 0 01-.917.725c.234.441.234.441.463.882l-.223.461s.905.078.591.543c-.314.465-.5-.212-.572.357-.073.569.214.784.066 1.012-.148.227.704.438.611.894-.094.567.49.106.223.905-.283.679-.547 1.019-.413 1.357.133.226 1.044.348.976.804-.072.567-1.01 1.23-1.01 1.23a2.856 2.856 0 00-.251.559h-.013z" fill="#000"/><path d="M1031.57 465.686c29.85 0 54.04-23.041 54.04-51.463 0-28.423-24.19-51.463-54.04-51.463-29.84 0-54.035 23.04-54.035 51.463 0 28.422 24.195 51.463 54.035 51.463z" fill="#fff" stroke="#171C1F" stroke-width="3.637" stroke-miterlimit="10"/><path d="M959.008 310.235l80.772 2.617c3.62.101 7.23.465 10.79 1.091 26.15 4.731 49.51 18.577 65.52 38.833 16.01 20.257 23.51 45.469 21.05 70.713" fill="#000"/><path d="M959.008 310.235l80.772 2.617c3.62.101 7.23.465 10.79 1.091 26.15 4.731 49.51 18.577 65.52 38.833 16.01 20.257 23.51 45.469 21.05 70.713" stroke="#fff" stroke-width="2.8" stroke-miterlimit="10"/><path d="M902.918 476.751c28.054 6.842 152.502 78.115 214.152-3.138l-214.152 3.138z" fill="#000"/><path d="M902.918 476.751c28.054 6.842 152.502 78.115 214.152-3.138" stroke="#ACACAC" stroke-width="2.8" stroke-miterlimit="10" stroke-dasharray="4.36 4.36"/><path d="M308.372 254.177c-19.959-11.26-55.533-46.483-73.743-78.315l73.743 78.315z" fill="#000"/><path d="M308.372 254.177c-19.959-11.26-55.533-46.483-73.743-78.315" stroke="#ACACAC" stroke-width="2.182" stroke-miterlimit="10" stroke-dasharray="4.36 4.36"/><path d="M356.463 272.328c3.855 1.651-4.08-1.185-.111.286l23.059 8.567 11.068 4.11 136.209 50.593" fill="#000"/><path d="M356.463 272.328c3.855 1.651-4.08-1.185-.111.286l23.059 8.567 11.068 4.11 136.209 50.593" stroke="#ACACAC" stroke-width="2.8" stroke-miterlimit="10" stroke-dasharray="4.36 4.36"/><path d="M258.5 128.428c-23.76-10.181-43.641 20.448-26.032 44.222l26.032-44.222z" fill="#000"/><path d="M258.5 128.428c-23.76-10.181-43.641 20.448-26.032 44.222" stroke="#ACACAC" stroke-width="2.182" stroke-miterlimit="10" stroke-dasharray="4.36 4.36"/><path d="M59.59 232.935c75.655 72.866 204.509 76.828 329.231 74.449L59.59 232.935z" fill="#000"/><path d="M59.59 232.935c75.655 72.866 204.509 76.828 329.231 74.449" stroke="#fff" stroke-width="2.8" stroke-miterlimit="10"/><path d="M35.453 146.103c-3.169 27.296 4.541 54.626 20.989 81.037l-20.99-81.037z" fill="#000"/><path d="M35.453 146.103c-3.169 27.296 4.541 54.626 20.989 81.037" stroke="#fff" stroke-width="2.8" stroke-miterlimit="10"/><path d="M509.644 127.571c-12.785 44.04-73.359 57.186-129.177 51.311-39.972-4.207-74.364-18.053-95.276-36.142" fill="#000"/><path d="M509.644 127.571c-12.785 44.04-73.359 57.186-129.177 51.311-39.972-4.207-74.364-18.053-95.276-36.142" stroke="#000" stroke-width="12" stroke-miterlimit="10"/><path d="M509.645 127.571c-12.786 44.039-73.36 57.186-129.178 51.31-39.972-4.207-74.363-18.052-95.276-36.141" fill="#000"/><path d="M509.645 127.571c-12.786 44.039-73.36 57.186-129.178 51.31-39.972-4.207-74.363-18.052-95.276-36.141" stroke="#fff" stroke-width="2.8" stroke-miterlimit="10"/><path d="M275.218 145.252c7.078 0 12.816-5.464 12.816-12.204 0-6.741-5.738-12.205-12.816-12.205s-12.816 5.464-12.816 12.205c0 6.74 5.738 12.204 12.816 12.204z" fill="#000" stroke="#fff" stroke-width="2.182" stroke-miterlimit="10" stroke-dasharray="4.36 4.36"/><path d="M403.82 306.186l388.841 1.699" stroke="#fff" stroke-width="5.399" stroke-miterlimit="10" stroke-linecap="round"/><path d="M543.008 379.417l7.042-9.11-4.168 10.177 2.946 1.094 5.201-12.699-4.738-1.759-6.25 8.172 1.264-10.024-4.791-1.78-5.201 12.699 2.946 1.094 4.161-10.159-1.269 11.234 2.857 1.061zm16.383-8.546l-3.034-1.127-5.201 12.699 3.034 1.127 5.201-12.699zm8.276 10.379c-1.378 3.363-3.612 3.078-5.83 2.254l-1.26-.468 3.135-7.654 1.26.468c2.218.824 4.072 2.037 2.695 5.4zm-5.956-9.517l-5.201 12.699 4.241 1.575c4.205 1.562 8.147 1.27 10.127-3.564 1.973-4.817-.721-7.573-4.926-9.135l-4.241-1.575zm19.191 16.31c-1.179 1.782-2.811 1.822-4.141 1.327-1.846-.685-2.659-2.642-1.562-5.322 1.062-2.592 3.091-3.554 4.883-2.888 1.438.534 2.425 1.768 2.051 3.627l2.981 1.107c.758-3.048-.702-5.972-3.914-7.165-4.027-1.496-7.569.115-9.212 4.126-1.664 4.064-.267 7.489 3.743 8.978 3.248 1.207 6.468.082 8.152-2.683l-2.981-1.107zm7.806 1.043c1.105-2.698 3.24-3.519 5.139-2.814 1.898.705 2.886 2.686 1.781 5.384-1.105 2.697-3.24 3.519-5.139 2.814-1.898-.706-2.886-2.687-1.781-5.384zm10.131 3.763c1.622-3.959-.042-7.584-3.981-9.047-3.957-1.469-7.74.132-9.362 4.091-1.621 3.958.025 7.577 3.982 9.046 3.939 1.463 7.74-.132 9.361-4.09zm3.951-5.858l-2.977 7.269c-1.714 4.186-.578 6.303 3.272 7.733 4.01 1.49 6.297.2 7.896-3.706l2.934-7.164-3.034-1.127-3.034 7.409c-.768 1.874-1.628 2.927-3.757 2.136-2.112-.784-2.132-1.982-1.372-3.839l3.106-7.584-3.034-1.127zm15.938 20.55l3.567 1.325-1.017-6.452c1.702-.013 3.187-.693 3.954-2.567 1.291-3.153-.895-4.853-4.231-6.092l-4.95-1.839-5.201 12.699 3.034 1.127 1.959-4.782 2.058.765.827 5.816zm1.329-11.231c1.437.534 2.43 1.205 1.949 2.379-.495 1.208-1.688 1.028-3.125.494l-2.005-.745 1.176-2.873 2.005.745zm17.318 7.765c.722-2.961-1.264-4.95-3.766-5.879-2.519-.936-5.836-.775-6.897 1.817-.933 2.277.557 3.981 2.478 5.179l1.433.895c1.297.825 2.108 1.59 1.771 2.413-.431 1.051-1.72.956-2.767.567-1.579-.587-2.393-1.595-2.185-3.051l-3.016-1.121c-.647 2.928.822 5.33 4.14 6.563 2.679.995 6.011.497 7.101-2.165 1.091-2.663-1.277-4.269-3.181-5.46l-1.613-1.003c-.826-.529-1.225-1.202-.967-1.832.323-.789 1.354-.91 2.543-.469 1.295.482 2.02 1.356 1.927 2.432l2.999 1.114zm-1.798 9.724l9.865 3.665 1.083-2.645-6.831-2.538 1.047-2.557 6.459 2.399 1.083-2.645-6.458-2.399.911-2.224 6.831 2.537 1.076-2.627-9.865-3.665-5.201 12.699zm26.315 4.326c-1.18 1.782-2.811 1.822-4.142 1.327-1.845-.685-2.658-2.642-1.561-5.322 1.062-2.592 3.091-3.554 4.883-2.888 1.437.534 2.424 1.768 2.051 3.627l2.981 1.107c.758-3.048-.702-5.972-3.914-7.164-4.028-1.497-7.57.114-9.212 4.125-1.665 4.064-.267 7.489 3.743 8.979 3.247 1.206 6.468.081 8.152-2.684l-2.981-1.107zm7.806 1.043c1.104-2.698 3.24-3.519 5.138-2.814 1.899.705 2.886 2.687 1.782 5.384-1.105 2.697-3.24 3.519-5.139 2.814-1.899-.706-2.886-2.687-1.781-5.384zm10.131 3.763c1.621-3.959-.042-7.584-3.981-9.047-3.957-1.469-7.741.132-9.362 4.091-1.621 3.958.025 7.577 3.981 9.046 3.94 1.463 7.741-.132 9.362-4.09zm6.841 9.846l3.567 1.325-1.017-6.452c1.702-.014 3.186-.693 3.954-2.568 1.291-3.152-.895-4.852-4.231-6.091l-4.95-1.839-5.201 12.699 3.034 1.127 1.958-4.782 2.059.765.827 5.816zm1.329-11.231c1.437.534 2.43 1.205 1.949 2.379-.495 1.208-1.688 1.027-3.125.493l-2.006-.744 1.177-2.873 2.005.745zm11.459 15.981l3.566 1.325-1.016-6.452c1.702-.014 3.186-.694 3.954-2.568 1.291-3.153-.895-4.853-4.231-6.092l-4.95-1.838-5.201 12.699 3.034 1.127 1.958-4.782 2.059.764.827 5.817zm1.329-11.231c1.437.533 2.43 1.205 1.949 2.378-.495 1.209-1.688 1.028-3.126.494l-2.005-.744 1.177-2.873 2.005.745zm3.581 13.054l9.865 3.665 1.083-2.645-6.831-2.537 1.047-2.558 6.459 2.399 1.083-2.645-6.458-2.399.911-2.224 6.831 2.537 1.076-2.627-9.865-3.665-5.201 12.699zm22.503 2.91c-1.18 1.782-2.811 1.822-4.142 1.327-1.845-.685-2.659-2.642-1.561-5.322 1.062-2.592 3.091-3.554 4.883-2.888 1.437.534 2.424 1.768 2.051 3.627l2.981 1.107c.758-3.048-.702-5.971-3.914-7.164-4.028-1.496-7.57.114-9.213 4.125-1.664 4.064-.266 7.489 3.744 8.979 3.247 1.206 6.468.081 8.152-2.684l-2.981-1.107zm5.257 7.402l3.052 1.133 4.125-10.071 4.134 1.535 1.076-2.627-11.302-4.198-1.076 2.627 4.116 1.529-4.125 10.072zm16.69-8.432l-3.035-1.127-5.2 12.699 3.034 1.127 5.201-12.699zm2.147 8.123c1.104-2.698 3.24-3.519 5.138-2.814 1.899.705 2.886 2.687 1.782 5.384-1.105 2.697-3.241 3.519-5.139 2.814-1.899-.706-2.886-2.687-1.781-5.384zm10.131 3.763c1.621-3.959-.042-7.584-3.981-9.047-3.957-1.469-7.741.132-9.362 4.091-1.621 3.958.025 7.577 3.981 9.046 3.939 1.463 7.741-.132 9.362-4.09zm10.745 11.296l5.201-12.699-2.928-1.087-3.587 8.757-1.577-10.675-3.69-1.371-5.201 12.699 2.928 1.087 3.586-8.758 1.577 10.676 3.691 1.371zm16.06-4.428c.722-2.96-1.264-4.949-3.766-5.879-2.52-.935-5.836-.775-6.898 1.818-.932 2.277.558 3.98 2.479 5.178l1.432.896c1.298.825 2.109 1.59 1.772 2.413-.431 1.051-1.72.956-2.767.567-1.579-.587-2.393-1.595-2.185-3.052l-3.016-1.12c-.647 2.928.822 5.33 4.14 6.563 2.679.995 6.011.497 7.101-2.166 1.091-2.662-1.277-4.268-3.181-5.459l-1.613-1.003c-.826-.529-1.225-1.202-.967-1.833.323-.788 1.354-.909 2.543-.468 1.295.481 2.02 1.356 1.927 2.432l2.999 1.113zM447.926 281.545l3.119-10.984-.052 10.998 3.142.013.065-13.723-5.054-.021-2.734 9.83-2.584-9.853-5.111-.022-.065 13.722 3.142.014.052-10.978 3.033 10.991 3.047.013zm11.994-13.671l-3.236-.014-.066 13.723 3.237.014.065-13.723zm11.566 6.902c-.017 3.634-2.196 4.136-4.562 4.126l-1.344-.006.039-8.272 1.344.006c2.366.01 4.54.512 4.523 4.146zm-9.091-6.891l-.065 13.723 4.524.019c4.486.019 8.033-1.612 8.058-6.836.025-5.205-3.507-6.867-7.993-6.887l-4.524-.019zm23.913 8.716c-.426 2.08-1.924 2.679-3.344 2.673-1.968-.009-3.456-1.567-3.443-4.463.014-2.801 1.536-4.404 3.447-4.395 1.534.006 2.911.826 3.262 2.701l3.18.014c-.439-3.125-2.889-5.369-6.315-5.384-4.297-.018-6.979 2.715-7 7.049-.02 4.391 2.56 7.128 6.837 7.147 3.464.015 6.03-2.151 6.556-5.329l-3.18-.013zm7.631-1.709c.014-2.915 1.687-4.422 3.712-4.413 2.025.009 3.684 1.53 3.67 4.445-.014 2.915-1.687 4.422-3.712 4.413-2.025-.009-3.684-1.53-3.67-4.445zm10.808.047c.02-4.278-2.881-7.111-7.083-7.129-4.221-.018-7.131 2.79-7.151 7.067-.02 4.278 2.862 7.111 7.083 7.129 4.202.018 7.13-2.789 7.151-7.067zm1.469-6.865l-.037 7.855c-.022 4.524 1.825 6.122 5.933 6.14 4.278.018 5.915-1.981 5.935-6.202l.037-7.741-3.237-.014-.038 8.006c-.01 2.025-.413 3.311-2.685 3.301-2.252-.01-2.72-1.129-2.71-3.135l.039-8.196-3.237-.014zm22.484 13.82l3.805.017-3.361-5.712c1.574-.599 2.696-1.749 2.706-3.774.016-3.407-2.649-4.251-6.207-4.267l-5.281-.023-.066 13.723 3.237.014.025-5.167 2.195.009 2.947 5.18zm-2.976-11.01c1.534.007 2.706.296 2.7 1.564-.007 1.306-1.181 1.547-2.714 1.54l-2.139-.009.015-3.104 2.138.009zm18.973 1.331c-.439-3.03-3.027-4.215-5.696-4.226-2.688-.012-5.703 1.281-5.717 4.083-.011 2.46 2.009 3.548 4.24 4.012l1.664.348c1.513.328 2.552.768 2.548 1.657-.006 1.136-1.238 1.49-2.355 1.485-1.684-.007-2.817-.674-3.169-2.114l-3.218-.014c.497 2.974 2.76 4.725 6.299 4.74 2.858.013 5.762-1.603 5.776-4.48.013-2.877-2.785-3.57-4.997-4.034l-1.872-.387c-.964-.212-1.587-.707-1.583-1.388.004-.852.914-1.321 2.183-1.316 1.381.006 2.382.578 2.699 1.621l3.198.013zm1.976 9.757l10.524.045.014-2.858-7.287-.031.013-2.764 6.89.03.013-2.858-6.89-.03.012-2.403 7.287.031.014-2.839-10.524-.046-.066 13.723zm26.03-4.998c-.426 2.08-1.924 2.679-3.344 2.673-1.968-.008-3.456-1.567-3.442-4.463.013-2.801 1.535-4.403 3.447-4.395 1.533.007 2.911.826 3.261 2.702l3.18.014c-.439-3.126-2.889-5.37-6.315-5.384-4.297-.019-6.979 2.714-6.999 7.048-.021 4.392 2.559 7.128 6.837 7.147 3.463.015 6.029-2.151 6.555-5.328l-3.18-.014zm7.631-1.709c.014-2.914 1.687-4.421 3.712-4.413 2.025.009 3.684 1.531 3.67 4.445-.014 2.915-1.687 4.422-3.712 4.414-2.025-.009-3.684-1.531-3.67-4.446zm10.808.047c.02-4.277-2.881-7.11-7.083-7.128-4.221-.019-7.13 2.789-7.151 7.067-.02 4.277 2.862 7.11 7.083 7.128 4.202.019 7.131-2.789 7.151-7.067zm10.035 6.896l3.804.016-3.36-5.712c1.573-.599 2.696-1.749 2.705-3.774.017-3.407-2.648-4.251-6.207-4.267l-5.281-.022-.065 13.722 3.237.014.024-5.167 2.196.009 2.947 5.181zm-2.976-11.011c1.533.007 2.705.296 2.699 1.564-.006 1.306-1.181 1.547-2.714 1.541l-2.139-.01.015-3.104 2.139.009zm16.617 11.07l3.805.016-3.361-5.712c1.574-.599 2.696-1.749 2.706-3.774.016-3.407-2.649-4.251-6.207-4.267l-5.281-.022-.066 13.722 3.237.014.025-5.167 2.195.009 2.947 5.181zm-2.976-11.011c1.533.007 2.706.296 2.7 1.564-.007 1.306-1.181 1.547-2.715 1.541l-2.138-.01.014-3.104 2.139.009zm8.214 11.033l10.524.046.013-2.858-7.287-.032.013-2.763 6.89.029.013-2.858-6.889-.03.011-2.403 7.287.031.014-2.839-10.524-.046-.065 13.723zm21.963-5.016c-.426 2.081-1.924 2.68-3.344 2.674-1.969-.009-3.456-1.567-3.443-4.463.014-2.802 1.536-4.404 3.447-4.396 1.533.007 2.911.827 3.262 2.702l3.18.014c-.44-3.125-2.89-5.369-6.315-5.384-4.297-.018-6.979 2.715-7 7.049-.021 4.391 2.56 7.128 6.837 7.147 3.464.015 6.03-2.151 6.556-5.329l-3.18-.014zm7.65 5.144l3.256.014.052-10.883 4.41.019.013-2.839-12.057-.053-.013 2.84 4.391.019-.052 10.883zm12.321-13.67l-3.237-.014-.065 13.723 3.236.014.066-13.723zm5.035 6.893c.014-2.915 1.687-4.422 3.712-4.413 2.025.009 3.684 1.53 3.67 4.445-.014 2.915-1.687 4.422-3.712 4.413-2.025-.009-3.684-1.53-3.67-4.445zm10.808.047c.02-4.278-2.881-7.111-7.083-7.129-4.221-.018-7.13 2.79-7.151 7.067-.02 4.278 2.862 7.111 7.083 7.129 4.202.018 7.13-2.789 7.151-7.067zm14.199 6.913l.065-13.722-3.123-.014-.045 9.464-5.463-9.488-3.937-.017-.065 13.723 3.123.013.045-9.464 5.463 9.488 3.937.017zm13.238-9.691c-.44-3.03-3.028-4.215-5.697-4.226-2.687-.012-5.703 1.281-5.716 4.082-.012 2.461 2.008 3.549 4.239 4.013l1.664.347c1.513.329 2.552.769 2.548 1.658-.006 1.136-1.238 1.49-2.354 1.485-1.685-.007-2.817-.674-3.17-2.114l-3.218-.014c.497 2.974 2.76 4.725 6.299 4.74 2.859.012 5.762-1.603 5.776-4.48.014-2.877-2.784-3.57-4.997-4.034l-1.872-.387c-.964-.212-1.586-.707-1.583-1.388.004-.852.915-1.321 2.183-1.316 1.382.006 2.382.578 2.699 1.621l3.199.013z" fill="#fff"/><path d="M806.473 307.852l101.462 1.282" stroke="#fff" stroke-width="2.8" stroke-miterlimit="10"/><path d="M541.312 342.05l306.514 113.852" stroke="#fff" stroke-width="5.028" stroke-miterlimit="10" stroke-linecap="round"/><path d="M934.389 331.569c11.629 0 21.057-8.978 21.057-20.053 0-11.075-9.428-20.053-21.057-20.053-11.629 0-21.057 8.978-21.057 20.053 0 11.075 9.428 20.053 21.057 20.053zM1130.24 469.27c11.63 0 21.06-8.978 21.06-20.053 0-11.075-9.43-20.053-21.06-20.053-11.63 0-21.05 8.978-21.05 20.053 0 11.075 9.42 20.053 21.05 20.053zm-252.371 17.842c11.63 0 21.057-8.978 21.057-20.052 0-11.075-9.427-20.053-21.057-20.053-11.629 0-21.057 8.978-21.057 20.053 0 11.074 9.428 20.052 21.057 20.052zM331.662 282.039c11.63 0 21.057-8.978 21.057-20.052 0-11.075-9.427-20.053-21.057-20.053-11.629 0-21.057 8.978-21.057 20.053 0 11.074 9.428 20.052 21.057 20.052zM47.634 140.726c11.63 0 21.057-8.978 21.057-20.053 0-11.075-9.428-20.053-21.057-20.053-11.63 0-21.057 8.978-21.057 20.053 0 11.075 9.428 20.053 21.057 20.053zm453.224 16.844c11.629 0 21.056-8.978 21.056-20.053 0-11.075-9.427-20.053-21.056-20.053-11.63 0-21.057 8.978-21.057 20.053 0 11.075 9.427 20.053 21.057 20.053zm-225.32-5.235c11.629 0 21.057-8.978 21.057-20.053 0-11.075-9.428-20.053-21.057-20.053-11.63 0-21.057 8.978-21.057 20.053 0 11.075 9.427 20.053 21.057 20.053zm98.237 37.306c11.629 0 21.057-8.978 21.057-20.053 0-11.075-9.428-20.053-21.057-20.053-11.629 0-21.057 8.978-21.057 20.053 0 11.075 9.428 20.053 21.057 20.053z" fill="#000" stroke="#fff" stroke-width="6" stroke-miterlimit="10"/><path d="M395.365 211.147c4.872 0 7.44-3.48 7.44-9.048 0-5.544-2.568-8.952-7.44-8.952-4.896 0-7.464 3.408-7.464 8.952 0 5.568 2.568 9.048 7.464 9.048zm0-2.928c-2.04 0-3.408-1.896-3.408-6.12 0-4.2 1.368-6.024 3.408-6.024 2.016 0 3.384 1.824 3.384 6.024 0 4.224-1.368 6.12-3.384 6.12zm16.748 2.616v-17.4h-3c-.768 1.896-1.968 2.736-4.896 2.808v2.904h3.96v11.688h3.936zm93.131-27.375c4.872 0 7.44-3.48 7.44-9.048 0-5.544-2.568-8.952-7.44-8.952-4.896 0-7.464 3.408-7.464 8.952 0 5.568 2.568 9.048 7.464 9.048zm0-2.928c-2.04 0-3.408-1.896-3.408-6.12 0-4.2 1.368-6.024 3.408-6.024 2.016 0 3.384 1.824 3.384 6.024 0 4.224-1.368 6.12-3.384 6.12zm16.148-15.072c-4.032 0-6.936 2.424-6.816 6.552h3.912c-.12-2.784 1.392-3.624 2.784-3.624 1.32 0 2.424.696 2.424 2.208 0 2.856-4.632 5.904-9.312 9.312v3.24h13.368v-3.24h-8.328c5.136-2.952 8.256-5.904 8.256-9.552 0-3.096-2.64-4.896-6.288-4.896zm394.545 113.678c4.872 0 7.44-3.48 7.44-9.048 0-5.544-2.568-8.952-7.44-8.952-4.896 0-7.464 3.408-7.464 8.952 0 5.568 2.568 9.048 7.464 9.048zm0-2.928c-2.04 0-3.408-1.896-3.408-6.12 0-4.2 1.368-6.024 3.408-6.024 2.016 0 3.384 1.824 3.384 6.024 0 4.224-1.368 6.12-3.384 6.12zm17.251-9.624v5.088h-4.128l4.128-5.088zm6.36 5.088h-2.4v-10.248h-3.672l-8.76 10.632v3.096h8.472v3.672h3.96v-3.672h2.4v-3.48zm201.162 225.855c4.88 0 7.44-3.48 7.44-9.048 0-5.544-2.56-8.952-7.44-8.952-4.89 0-7.46 3.408-7.46 8.952 0 5.568 2.57 9.048 7.46 9.048zm0-2.928c-2.04 0-3.4-1.896-3.4-6.12 0-4.2 1.36-6.024 3.4-6.024 2.02 0 3.39 1.824 3.39 6.024 0 4.224-1.37 6.12-3.39 6.12zm16.58 0c-1.53 0-2.8-.72-3.16-2.736h-3.82c.58 3.696 3.43 5.664 7.03 5.664 3.82 0 7.11-2.088 7.11-6.072 0-4.032-2.98-6.072-6.12-6.072-1.23 0-2.62.336-3.46.912l.41-3.264h8.35v-3.216h-11.64l-1.22 9.864 3.62.36c.6-1.128 1.61-1.728 2.98-1.728 1.53 0 3 1.032 3 3.168 0 2.016-1.32 3.12-3.08 3.12zm-293.983 22.406c4.872 0 7.44-3.48 7.44-9.048 0-5.544-2.568-8.952-7.44-8.952-4.896 0-7.464 3.408-7.464 8.952 0 5.568 2.568 9.048 7.464 9.048zm0-2.928c-2.04 0-3.408-1.896-3.408-6.12 0-4.2 1.368-6.024 3.408-6.024 2.016 0 3.384 1.824 3.384 6.024 0 4.224-1.368 6.12-3.384 6.12zm13.7-3.096c0-1.92 1.104-3.096 2.832-3.096 1.728 0 2.76 1.272 2.76 3.096 0 1.896-1.032 3.096-2.76 3.096-1.728 0-2.832-1.2-2.832-3.096zm3.072-9.12c1.248 0 2.304.528 2.496 2.16h3.888c-.192-2.76-2.136-5.016-6.168-5.016-5.304 0-7.464 4.32-7.464 9.408 0 4.824 2.064 8.592 7.008 8.592 3.96 0 6.816-2.352 6.816-6.024 0-3.552-2.808-6.072-5.952-6.072-1.728 0-2.88.504-3.744 1.272-.072-2.952 1.296-4.32 3.12-4.32zM9.58 97.962c4.872 0 7.44-3.48 7.44-9.048 0-5.544-2.568-8.952-7.44-8.952-4.896 0-7.464 3.408-7.464 8.952 0 5.568 2.568 9.048 7.464 9.048zm0-2.928c-2.04 0-3.408-1.896-3.408-6.12 0-4.2 1.368-6.024 3.408-6.024 2.016 0 3.384 1.824 3.384 6.024 0 4.224-1.368 6.12-3.384 6.12zm16.148 0c-1.512 0-2.976-.792-3.24-2.832h-3.936c.456 4.056 3.648 5.76 7.104 5.76 3.624 0 6.912-1.8 6.912-5.376 0-1.608-.984-3.432-2.712-4.128 1.224-.696 2.424-2.136 2.424-3.96 0-3.168-3.288-4.536-6.36-4.536-3.504 0-6.768 1.536-7.152 5.352h3.912c.264-1.848 1.56-2.424 3.048-2.424 1.296 0 2.568.672 2.568 1.944 0 1.536-1.368 2.28-3.648 2.28h-1.032v3.264h1.152c2.232 0 3.744.696 3.744 2.232 0 1.608-1.056 2.424-2.784 2.424zm217.494 10.435c4.872 0 7.44-3.48 7.44-9.048 0-5.544-2.568-8.952-7.44-8.952-4.896 0-7.464 3.408-7.464 8.952 0 5.568 2.568 9.048 7.464 9.048zm0-2.928c-2.04 0-3.408-1.896-3.408-6.12 0-4.2 1.368-6.024 3.408-6.024 2.016 0 3.384 1.824 3.384 6.024 0 4.224-1.368 6.12-3.384 6.12zm16.796 2.928c4.032 0 7.104-1.992 7.104-5.472 0-1.632-.552-3.072-2.352-4.2 1.176-.84 1.848-1.824 1.848-3.648 0-2.616-2.568-4.68-6.6-4.68s-6.624 2.064-6.624 4.68c0 1.824.648 2.808 1.872 3.648-1.8 1.128-2.352 2.568-2.352 4.2 0 3.48 3.072 5.472 7.104 5.472zm0-2.928c-1.968 0-3.048-1.248-3.048-2.688 0-1.44 1.056-2.592 3.048-2.592s3.048 1.152 3.048 2.592c0 1.44-1.08 2.688-3.048 2.688zm0-7.872c-1.8 0-2.688-.912-2.688-2.136 0-1.248.888-2.136 2.688-2.136 1.8 0 2.688.888 2.688 2.136 0 1.224-.888 2.136-2.688 2.136zm19.247 189.084c4.872 0 7.44-3.48 7.44-9.048 0-5.544-2.568-8.952-7.44-8.952-4.896 0-7.464 3.408-7.464 8.952 0 5.568 2.568 9.048 7.464 9.048zm0-2.928c-2.04 0-3.408-1.896-3.408-6.12 0-4.2 1.368-6.024 3.408-6.024 2.016 0 3.384 1.824 3.384 6.024 0 4.224-1.368 6.12-3.384 6.12zm8.516-11.568h8.88c-4.2 3.192-7.2 7.8-7.2 14.184h4.224c.12-6.552 2.28-10.104 7.128-14.184v-3.216h-13.032v3.216z" fill="#fff"/></svg>